<svg width="19" height="18" viewBox="0 0 19 18" fill="none" xmlns="http://www.w3.org/2000/svg">
<path fill-rule="evenodd" clip-rule="evenodd" d="M6.5 2.25C4.42893 2.25 2.75 3.92893 2.75 6C2.75 8.07107 4.42893 9.75 6.5 9.75C8.57107 9.75 10.25 8.07107 10.25 6C10.25 3.92893 8.57107 2.25 6.5 2.25ZM1.25 6C1.25 3.10051 3.60051 0.75 6.5 0.75C9.3995 0.75 11.75 3.10051 11.75 6C11.75 8.8995 9.3995 11.25 6.5 11.25C3.60051 11.25 1.25 8.8995 1.25 6ZM5 4.5C5 4.08579 5.33579 3.75 5.75 3.75H6.5C6.91421 3.75 7.25 4.08579 7.25 4.5V7.5C7.25 7.91421 6.91421 8.25 6.5 8.25C6.08579 8.25 5.75 7.91421 5.75 7.5V5.25C5.33579 5.25 5 4.91421 5 4.5ZM13.3647 7.5155C13.5094 7.12738 13.9414 6.93005 14.3295 7.07475C15.1566 7.38313 15.8927 7.89509 16.4695 8.5633C17.0464 9.23151 17.4454 10.0344 17.6298 10.8977C17.8141 11.761 17.7778 12.6568 17.5242 13.5024C17.2705 14.3479 16.8078 15.1158 16.1787 15.7352C15.5497 16.3545 14.7746 16.8052 13.9252 17.0456C13.0758 17.286 12.1795 17.3083 11.3192 17.1105C10.4589 16.9127 9.66235 16.5012 9.00322 15.914C8.3441 15.3268 7.84368 14.5829 7.54825 13.751C7.40962 13.3607 7.61367 12.9319 8.004 12.7932C8.39433 12.6546 8.82313 12.8587 8.96175 13.249C9.17277 13.8432 9.53022 14.3746 10.001 14.794C10.4718 15.2134 11.0408 15.5074 11.6553 15.6487C12.2698 15.7899 12.91 15.774 13.5167 15.6023C14.1235 15.4306 14.6771 15.1086 15.1264 14.6663C15.5757 14.2239 15.9062 13.6754 16.0874 13.0714C16.2686 12.4674 16.2945 11.8276 16.1628 11.2109C16.0312 10.5943 15.7461 10.0208 15.3341 9.5435C14.9221 9.06621 14.3963 8.70052 13.8055 8.48025C13.4174 8.33555 13.2201 7.90362 13.3647 7.5155ZM12.5059 9.87592C12.8009 9.58511 13.2758 9.58848 13.5666 9.88344L14.0916 10.4159C14.3809 10.7094 14.3793 11.1814 14.0878 11.4728L11.9728 13.5878C11.6799 13.8807 11.2051 13.8807 10.9122 13.5878C10.6193 13.2949 10.6193 12.8201 10.9122 12.5272L12.5006 10.9388L12.4984 10.9366C12.2076 10.6416 12.211 10.1667 12.5059 9.87592Z" fill="#0F111C"/>
</svg>
