<svg width="25" height="24" viewBox="0 0 25 24" fill="none" xmlns="http://www.w3.org/2000/svg">
<path fill-rule="evenodd" clip-rule="evenodd" d="M2.81343 4.58C2.81343 2.61024 4.40863 1 6.39344 1C8.37572 1 9.97343 2.59772 9.97343 4.58C9.97343 6.51871 8.44697 8.08988 6.52964 8.15935C6.48584 8.16093 6.44201 8.15964 6.39844 8.15548C6.35486 8.15964 6.31103 8.16093 6.26723 8.15935C4.34865 8.08983 2.82726 6.51905 2.81346 4.58714L2.81341 4.58H2.81343ZM4.81344 4.57644C4.82128 5.42096 5.46555 6.09536 6.27626 6.1571C6.3573 6.15097 6.43959 6.15097 6.52064 6.1571C7.33343 6.09528 7.97343 5.41958 7.97343 4.58C7.97343 3.70228 7.27115 3 6.39344 3C5.51944 3 4.81536 3.70783 4.81344 4.57644ZM18.2434 3C17.3657 3 16.6634 3.70228 16.6634 4.58C16.6634 5.41958 17.3034 6.09528 18.1162 6.1571C18.1973 6.15097 18.2796 6.15097 18.3606 6.1571C19.1713 6.09536 19.8156 5.42094 19.8234 4.57639C19.8215 3.7078 19.1174 3 18.2434 3ZM14.6634 4.58C14.6634 2.59772 16.2611 1 18.2434 1C20.2282 1 21.8234 2.61024 21.8234 4.58V4.58714H21.8234C21.8096 6.51904 20.2882 8.08983 18.3696 8.15935C18.3258 8.16093 18.282 8.15964 18.2384 8.15548C18.1949 8.15964 18.151 8.16093 18.1072 8.15935C16.1899 8.08988 14.6634 6.51871 14.6634 4.58ZM12.2434 10.47C11.3657 10.47 10.6634 11.1723 10.6634 12.05C10.6634 12.8896 11.3034 13.5653 12.1162 13.6271C12.1988 13.6209 12.2827 13.621 12.3653 13.6275C13.1658 13.5725 13.8155 12.8978 13.8234 12.0465C13.8215 11.1778 13.1174 10.47 12.2434 10.47ZM8.66344 12.05C8.66344 10.0677 10.2611 8.47 12.2434 8.47C14.2282 8.47 15.8234 10.0802 15.8234 12.05V12.0571H15.8234C15.8097 13.9826 14.2931 15.5736 12.3624 15.6296C12.321 15.6308 12.2796 15.6294 12.2384 15.6255C12.1949 15.6296 12.151 15.6309 12.1072 15.6293C10.1899 15.5599 8.66344 13.9887 8.66344 12.05ZM3.94732 11.1326C4.76368 10.5914 6.02177 10.3702 7.19088 10.575C7.73488 10.6703 8.25314 10.3066 8.34843 9.76256C8.44373 9.21856 8.07999 8.7003 7.53599 8.605C5.96557 8.32989 4.16419 8.58845 2.84054 9.46676L2.83874 9.46796C1.92522 10.077 1.33594 10.9798 1.33594 12.01C1.33594 13.0399 1.92483 13.9425 2.83783 14.5515C4.15244 15.4316 5.93331 15.6891 7.499 15.4262C8.04366 15.3348 8.41107 14.8191 8.31963 14.2744C8.2282 13.7298 7.71253 13.3624 7.16787 13.4538C5.99392 13.6509 4.75525 13.4286 3.94995 12.8892L3.94814 12.888C3.45165 12.557 3.33594 12.2198 3.33594 12.01C3.33594 11.8004 3.45152 11.4634 3.94732 11.1326ZM17.1009 8.605C18.6713 8.32989 20.4727 8.58845 21.7963 9.46676L21.7981 9.46796C22.7117 10.077 23.3009 10.9798 23.3009 12.01C23.3009 13.0402 22.7117 13.943 21.7981 14.5521C20.4836 15.4317 18.7032 15.689 17.1379 15.4262C16.5932 15.3348 16.2258 14.8191 16.3172 14.2744C16.4087 13.7298 16.9243 13.3624 17.469 13.4538C18.643 13.6509 19.8816 13.4286 20.6869 12.8892L20.6887 12.888C21.1852 12.557 21.3009 12.2198 21.3009 12.01C21.3009 11.8004 21.1854 11.4634 20.6896 11.1326C19.8732 10.5914 18.6151 10.3702 17.446 10.575C16.902 10.6703 16.3837 10.3066 16.2884 9.76256C16.1931 9.21856 16.5569 8.7003 17.1009 8.605ZM12.3372 15.985C13.5431 15.985 14.8032 16.2847 15.7981 16.948C16.7116 17.557 17.3009 18.4598 17.3009 19.49C17.3009 20.52 16.7119 21.4226 15.7987 22.0316C14.8001 22.6993 13.5405 23.0025 12.3334 23.0025C11.1266 23.0025 9.86728 22.6994 8.86874 22.032C7.95522 21.423 7.36594 20.5202 7.36594 19.49C7.36594 18.4598 7.95522 17.557 8.86874 16.948L8.87114 16.9464C9.86978 16.2848 11.131 15.985 12.3372 15.985ZM9.97685 18.6129C9.48145 18.9436 9.36594 19.2804 9.36594 19.49C9.36594 19.6998 9.48165 20.037 9.97814 20.3679L9.97934 20.3687C10.5806 20.7708 11.4307 21.0025 12.3334 21.0025C13.2361 21.0025 14.0863 20.7708 14.6875 20.3687L14.6887 20.3679C15.1852 20.037 15.3009 19.6998 15.3009 19.49C15.3009 19.2802 15.1852 18.943 14.6887 18.6121C14.0937 18.2153 13.2438 17.985 12.3372 17.985C11.4315 17.985 10.5781 18.215 9.97685 18.6129Z" fill="#BFBDCA"/>
</svg>
