<svg width="32" height="32" viewBox="0 0 32 32" fill="none" xmlns="http://www.w3.org/2000/svg">
<path d="M19.755 18.2549H18.965L18.685 17.9849C19.665 16.8449 20.255 15.3649 20.255 13.7549C20.255 10.1649 17.345 7.25488 13.755 7.25488C10.165 7.25488 7.255 10.1649 7.255 13.7549C7.255 17.3449 10.165 20.2549 13.755 20.2549C15.365 20.2549 16.845 19.6649 17.985 18.6849L18.255 18.9649V19.7549L23.255 24.7449L24.745 23.2549L19.755 18.2549ZM13.755 18.2549C11.265 18.2549 9.255 16.2449 9.255 13.7549C9.255 11.2649 11.265 9.25488 13.755 9.25488C16.245 9.25488 18.255 11.2649 18.255 13.7549C18.255 16.2449 16.245 18.2549 13.755 18.2549Z" fill="#4D5974"/>
</svg>
