<svg width="24" height="24" viewBox="0 0 24 24" fill="none" xmlns="http://www.w3.org/2000/svg">
<path d="M12.3899 10.9C10.1199 10.31 9.38991 9.7 9.38991 8.75C9.38991 7.66 10.3999 6.9 12.0899 6.9C13.8699 6.9 14.5299 7.75 14.5899 9H16.7999C16.7299 7.28 15.6799 5.7 13.5899 5.19V3H10.5899V5.16C8.64991 5.58 7.08991 6.84 7.08991 8.77C7.08991 11.08 8.99991 12.23 11.7899 12.9C14.2899 13.5 14.7899 14.38 14.7899 15.31C14.7899 16 14.2999 17.1 12.0899 17.1C10.0299 17.1 9.21991 16.18 9.10991 15H6.90991C7.02991 17.19 8.66991 18.42 10.5899 18.83V21H13.5899V18.85C15.5399 18.48 17.0899 17.35 17.0899 15.3C17.0899 12.46 14.6599 11.49 12.3899 10.9Z" fill="#BFBDCA"/>
</svg>
