<svg width="12" height="12" viewBox="0 0 12 12" fill="none" xmlns="http://www.w3.org/2000/svg">
<path d="M7.5 0.75H4.5V1.75H7.5V0.75ZM5.5 7.25H6.5V4.25H5.5V7.25ZM9.515 3.945L10.225 3.235C10.01 2.98 9.775 2.74 9.52 2.53L8.81 3.24C8.035 2.62 7.06 2.25 6 2.25C3.515 2.25 1.5 4.265 1.5 6.75C1.5 9.235 3.51 11.25 6 11.25C8.49 11.25 10.5 9.235 10.5 6.75C10.5 5.69 10.13 4.715 9.515 3.945ZM6 10.25C4.065 10.25 2.5 8.685 2.5 6.75C2.5 4.815 4.065 3.25 6 3.25C7.935 3.25 9.5 4.815 9.5 6.75C9.5 8.685 7.935 10.25 6 10.25Z" fill="#BFBDCA"/>
</svg>
