<svg width="19" height="18" viewBox="0 0 19 18" fill="none" xmlns="http://www.w3.org/2000/svg">
<path fill-rule="evenodd" clip-rule="evenodd" d="M12.4775 12.6075C12.875 12.2325 13.4075 12 14 12C15.245 12 16.25 13.005 16.25 14.25C16.25 15.495 15.245 16.5 14 16.5C12.755 16.5 11.75 15.495 11.75 14.25C11.75 14.07 11.78 13.8975 11.8175 13.7325L6.53 10.6425C6.125 11.0175 5.5925 11.25 5 11.25C3.755 11.25 2.75 10.245 2.75 9C2.75 7.755 3.755 6.75 5 6.75C5.5925 6.75 6.125 6.9825 6.53 7.3575L11.8175 4.275C11.78 4.11 11.75 3.93 11.75 3.75C11.75 2.505 12.755 1.5 14 1.5C15.245 1.5 16.25 2.505 16.25 3.75C16.25 4.995 15.245 6 14 6C13.4075 6 12.8675 5.7675 12.47 5.3925L7.1825 8.475C7.22 8.6475 7.25 8.82 7.25 9C7.25 9.18 7.22 9.3525 7.1825 9.525L12.4775 12.6075ZM14.75 3.75C14.75 3.3375 14.4125 3 14 3C13.5875 3 13.25 3.3375 13.25 3.75C13.25 4.1625 13.5875 4.5 14 4.5C14.4125 4.5 14.75 4.1625 14.75 3.75ZM5 9.75C4.5875 9.75 4.25 9.4125 4.25 9C4.25 8.5875 4.5875 8.25 5 8.25C5.4125 8.25 5.75 8.5875 5.75 9C5.75 9.4125 5.4125 9.75 5 9.75ZM13.25 14.25C13.25 14.6625 13.5875 15 14 15C14.4125 15 14.75 14.6625 14.75 14.25C14.75 13.8375 14.4125 13.5 14 13.5C13.5875 13.5 13.25 13.8375 13.25 14.25Z" fill="black"/>
</svg>
