<svg width="24" height="24" viewBox="0 0 24 24" fill="none" xmlns="http://www.w3.org/2000/svg">
<path fill-rule="evenodd" clip-rule="evenodd" d="M2.3415 5.12242C3.40446 4.19233 5.02116 4 7 4H17C18.9788 4 20.5955 4.19233 21.6585 5.12242C22.7703 6.09522 23 7.61172 23 9.375V10.25C23 10.8023 22.5523 11.25 22 11.25C21.0427 11.25 20.5 11.9035 20.5 12.4375C20.5 12.9715 21.0427 13.625 22 13.625C22.5523 13.625 23 14.0727 23 14.625C23 16.3883 22.7703 17.9048 21.6585 18.8776C20.5955 19.8077 18.9788 20 17 20H7C5.02116 20 3.40446 19.8077 2.3415 18.8776C1.22973 17.9048 1 16.3883 1 14.625V14.1875C1 13.6352 1.44772 13.1875 2 13.1875C2.95732 13.1875 3.5 12.534 3.5 12C3.5 11.466 2.95732 10.8125 2 10.8125C1.44772 10.8125 1 10.3648 1 9.8125V9.375C1 7.61172 1.22973 6.09522 2.3415 5.12242ZM3.00593 8.94917C4.38678 9.3301 5.5 10.4766 5.5 12C5.5 13.5234 4.38678 14.6699 3.00593 15.0508C3.04747 16.4749 3.30374 17.062 3.6585 17.3724C4.09554 17.7548 4.97884 18 7 18H17C19.0212 18 19.9045 17.7548 20.3415 17.3724C20.6581 17.0954 20.8962 16.5982 20.9733 15.4825C19.6021 15.0959 18.5 13.9532 18.5 12.4375C18.5 10.9119 19.6164 9.76432 21 9.38504V9.375C21 7.63828 20.7297 6.96728 20.3415 6.62758C19.9045 6.24517 19.0212 6 17 6H7C4.97884 6 4.09554 6.24517 3.6585 6.62758C3.30374 6.938 3.04747 7.52506 3.00593 8.94917ZM15.7526 8.49775C16.1163 8.91338 16.0741 9.54514 15.6585 9.90883L9.6585 15.1588C9.24287 15.5225 8.61111 15.4804 8.24742 15.0648C7.88374 14.6491 7.92586 14.0174 8.3415 13.6537L14.3415 8.40367C14.7571 8.03999 15.3889 8.08211 15.7526 8.49775ZM7.99451 9.59375C7.99451 9.04147 8.44222 8.59375 8.99451 8.59375H9.00349C9.55577 8.59375 10.0035 9.04147 10.0035 9.59375C10.0035 10.146 9.55577 10.5938 9.00349 10.5938H8.99451C8.44222 10.5938 7.99451 10.146 7.99451 9.59375ZM13.9945 14.4062C13.9945 13.854 14.4422 13.4062 14.9945 13.4062H15.0035C15.5558 13.4062 16.0035 13.854 16.0035 14.4062C16.0035 14.9585 15.5558 15.4062 15.0035 15.4062H14.9945C14.4422 15.4062 13.9945 14.9585 13.9945 14.4062Z" fill="white"/>
</svg>
