<svg aria-hidden="true" xmlns="http://www.w3.org/2000/svg" xmlns:xlink="http://www.w3.org/1999/xlink"><symbol viewBox="0 0 24 24" fill="none" id="icon-bell" xmlns="http://www.w3.org/2000/svg">
<path d="M14 19.75C14 20.85 13.1 21.75 12 21.75C10.9 21.75 10 20.85 10 19.75H14Z" fill="currentColor"/>
<path d="M18 10.75V15.75L20 17.75V18.75H4V17.75L6 15.75V10.75C6 7.67 7.64 5.11 10.5 4.43V3.75C10.5 2.92 11.17 2.25 12 2.25C12.83 2.25 13.5 2.92 13.5 3.75V4.43C16.37 5.11 18 7.68 18 10.75Z" fill="currentColor"/>
</symbol><symbol viewBox="0 0 24 24" fill="none" id="icon-chart" xmlns="http://www.w3.org/2000/svg">
<path d="M8 9H4V20H8V9Z" fill="currentColor"/>
<path d="M20 13H16V20H20V13Z" fill="currentColor"/>
<path d="M14 4H10V20H14V4Z" fill="currentColor"/>
</symbol><symbol viewBox="0 0 19 18" fill="none" id="icon-coins" xmlns="http://www.w3.org/2000/svg">
<path fill-rule="evenodd" clip-rule="evenodd" d="M6.5 2.25C4.42893 2.25 2.75 3.92893 2.75 6C2.75 8.07107 4.42893 9.75 6.5 9.75C8.57107 9.75 10.25 8.07107 10.25 6C10.25 3.92893 8.57107 2.25 6.5 2.25ZM1.25 6C1.25 3.10051 3.60051 0.75 6.5 0.75C9.3995 0.75 11.75 3.10051 11.75 6C11.75 8.8995 9.3995 11.25 6.5 11.25C3.60051 11.25 1.25 8.8995 1.25 6ZM5 4.5C5 4.08579 5.33579 3.75 5.75 3.75H6.5C6.91421 3.75 7.25 4.08579 7.25 4.5V7.5C7.25 7.91421 6.91421 8.25 6.5 8.25C6.08579 8.25 5.75 7.91421 5.75 7.5V5.25C5.33579 5.25 5 4.91421 5 4.5ZM13.3647 7.5155C13.5094 7.12738 13.9414 6.93005 14.3295 7.07475C15.1566 7.38313 15.8927 7.89509 16.4695 8.5633C17.0464 9.23151 17.4454 10.0344 17.6298 10.8977C17.8141 11.761 17.7778 12.6568 17.5242 13.5024C17.2705 14.3479 16.8078 15.1158 16.1787 15.7352C15.5497 16.3545 14.7746 16.8052 13.9252 17.0456C13.0758 17.286 12.1795 17.3083 11.3192 17.1105C10.4589 16.9127 9.66235 16.5012 9.00322 15.914C8.3441 15.3268 7.84368 14.5829 7.54825 13.751C7.40962 13.3607 7.61367 12.9319 8.004 12.7932C8.39433 12.6546 8.82313 12.8587 8.96175 13.249C9.17277 13.8432 9.53022 14.3746 10.001 14.794C10.4718 15.2134 11.0408 15.5074 11.6553 15.6487C12.2698 15.7899 12.91 15.774 13.5167 15.6023C14.1235 15.4306 14.6771 15.1086 15.1264 14.6663C15.5757 14.2239 15.9062 13.6754 16.0874 13.0714C16.2686 12.4674 16.2945 11.8276 16.1628 11.2109C16.0312 10.5943 15.7461 10.0208 15.3341 9.5435C14.9221 9.06621 14.3963 8.70052 13.8055 8.48025C13.4174 8.33555 13.2201 7.90362 13.3647 7.5155ZM12.5059 9.87592C12.8009 9.58511 13.2758 9.58848 13.5666 9.88344L14.0916 10.4159C14.3809 10.7094 14.3793 11.1814 14.0878 11.4728L11.9728 13.5878C11.6799 13.8807 11.2051 13.8807 10.9122 13.5878C10.6193 13.2949 10.6193 12.8201 10.9122 12.5272L12.5006 10.9388L12.4984 10.9366C12.2076 10.6416 12.211 10.1667 12.5059 9.87592Z" fill="currentColor"/>
</symbol><symbol viewBox="0 0 25 24" fill="none" id="icon-friends" xmlns="http://www.w3.org/2000/svg">
<path fill-rule="evenodd" clip-rule="evenodd" d="M2.81343 4.58C2.81343 2.61024 4.40863 1 6.39344 1C8.37572 1 9.97343 2.59772 9.97343 4.58C9.97343 6.51871 8.44697 8.08988 6.52964 8.15935C6.48584 8.16093 6.44201 8.15964 6.39844 8.15548C6.35486 8.15964 6.31103 8.16093 6.26723 8.15935C4.34865 8.08983 2.82726 6.51905 2.81346 4.58714L2.81341 4.58H2.81343ZM4.81344 4.57644C4.82128 5.42096 5.46555 6.09536 6.27626 6.1571C6.3573 6.15097 6.43959 6.15097 6.52064 6.1571C7.33343 6.09528 7.97343 5.41958 7.97343 4.58C7.97343 3.70228 7.27115 3 6.39344 3C5.51944 3 4.81536 3.70783 4.81344 4.57644ZM18.2434 3C17.3657 3 16.6634 3.70228 16.6634 4.58C16.6634 5.41958 17.3034 6.09528 18.1162 6.1571C18.1973 6.15097 18.2796 6.15097 18.3606 6.1571C19.1713 6.09536 19.8156 5.42094 19.8234 4.57639C19.8215 3.7078 19.1174 3 18.2434 3ZM14.6634 4.58C14.6634 2.59772 16.2611 1 18.2434 1C20.2282 1 21.8234 2.61024 21.8234 4.58V4.58714H21.8234C21.8096 6.51904 20.2882 8.08983 18.3696 8.15935C18.3258 8.16093 18.282 8.15964 18.2384 8.15548C18.1949 8.15964 18.151 8.16093 18.1072 8.15935C16.1899 8.08988 14.6634 6.51871 14.6634 4.58ZM12.2434 10.47C11.3657 10.47 10.6634 11.1723 10.6634 12.05C10.6634 12.8896 11.3034 13.5653 12.1162 13.6271C12.1988 13.6209 12.2827 13.621 12.3653 13.6275C13.1658 13.5725 13.8155 12.8978 13.8234 12.0465C13.8215 11.1778 13.1174 10.47 12.2434 10.47ZM8.66344 12.05C8.66344 10.0677 10.2611 8.47 12.2434 8.47C14.2282 8.47 15.8234 10.0802 15.8234 12.05V12.0571H15.8234C15.8097 13.9826 14.2931 15.5736 12.3624 15.6296C12.321 15.6308 12.2796 15.6294 12.2384 15.6255C12.1949 15.6296 12.151 15.6309 12.1072 15.6293C10.1899 15.5599 8.66344 13.9887 8.66344 12.05ZM3.94732 11.1326C4.76368 10.5914 6.02177 10.3702 7.19088 10.575C7.73488 10.6703 8.25314 10.3066 8.34843 9.76256C8.44373 9.21856 8.07999 8.7003 7.53599 8.605C5.96557 8.32989 4.16419 8.58845 2.84054 9.46676L2.83874 9.46796C1.92522 10.077 1.33594 10.9798 1.33594 12.01C1.33594 13.0399 1.92483 13.9425 2.83783 14.5515C4.15244 15.4316 5.93331 15.6891 7.499 15.4262C8.04366 15.3348 8.41107 14.8191 8.31963 14.2744C8.2282 13.7298 7.71253 13.3624 7.16787 13.4538C5.99392 13.6509 4.75525 13.4286 3.94995 12.8892L3.94814 12.888C3.45165 12.557 3.33594 12.2198 3.33594 12.01C3.33594 11.8004 3.45152 11.4634 3.94732 11.1326ZM17.1009 8.605C18.6713 8.32989 20.4727 8.58845 21.7963 9.46676L21.7981 9.46796C22.7117 10.077 23.3009 10.9798 23.3009 12.01C23.3009 13.0402 22.7117 13.943 21.7981 14.5521C20.4836 15.4317 18.7032 15.689 17.1379 15.4262C16.5932 15.3348 16.2258 14.8191 16.3172 14.2744C16.4087 13.7298 16.9243 13.3624 17.469 13.4538C18.643 13.6509 19.8816 13.4286 20.6869 12.8892L20.6887 12.888C21.1852 12.557 21.3009 12.2198 21.3009 12.01C21.3009 11.8004 21.1854 11.4634 20.6896 11.1326C19.8732 10.5914 18.6151 10.3702 17.446 10.575C16.902 10.6703 16.3837 10.3066 16.2884 9.76256C16.1931 9.21856 16.5569 8.7003 17.1009 8.605ZM12.3372 15.985C13.5431 15.985 14.8032 16.2847 15.7981 16.948C16.7116 17.557 17.3009 18.4598 17.3009 19.49C17.3009 20.52 16.7119 21.4226 15.7987 22.0316C14.8001 22.6993 13.5405 23.0025 12.3334 23.0025C11.1266 23.0025 9.86728 22.6994 8.86874 22.032C7.95522 21.423 7.36594 20.5202 7.36594 19.49C7.36594 18.4598 7.95522 17.557 8.86874 16.948L8.87114 16.9464C9.86978 16.2848 11.131 15.985 12.3372 15.985ZM9.97685 18.6129C9.48145 18.9436 9.36594 19.2804 9.36594 19.49C9.36594 19.6998 9.48165 20.037 9.97814 20.3679L9.97934 20.3687C10.5806 20.7708 11.4307 21.0025 12.3334 21.0025C13.2361 21.0025 14.0863 20.7708 14.6875 20.3687L14.6887 20.3679C15.1852 20.037 15.3009 19.6998 15.3009 19.49C15.3009 19.2802 15.1852 18.943 14.6887 18.6121C14.0937 18.2153 13.2438 17.985 12.3372 17.985C11.4315 17.985 10.5781 18.215 9.97685 18.6129Z" fill="currentColor"/>
</symbol><symbol viewBox="0 0 12 12" fill="none" id="icon-hourglass" xmlns="http://www.w3.org/2000/svg">
<path d="M3 1L3.005 4L5 6L3.005 8.005L3 11H9V8L7 6L9 4.005V1H3ZM8 8.25V10H4V8.25L6 6.25L8 8.25Z" fill="currentColor"/>
</symbol><symbol viewBox="0 0 24 24" fill="none" id="icon-profile" xmlns="http://www.w3.org/2000/svg">
<path fill-rule="evenodd" clip-rule="evenodd" d="M12 2C6.48 2 2 6.48 2 12C2 17.52 6.48 22 12 22C17.52 22 22 17.52 22 12C22 6.48 17.52 2 12 2ZM18.36 16.83C16.93 15.09 13.46 14.5 12 14.5C10.54 14.5 7.07 15.09 5.64 16.83C4.62 15.49 4 13.82 4 12C4 7.59 7.59 4 12 4C16.41 4 20 7.59 20 12C20 13.82 19.38 15.49 18.36 16.83ZM8.5 9.5C8.5 7.56 10.06 6 12 6C13.94 6 15.5 7.56 15.5 9.5C15.5 11.44 13.94 13 12 13C10.06 13 8.5 11.44 8.5 9.5Z" fill="currentColor"/>
</symbol><symbol viewBox="0 0 24 24" fill="none" id="icon-ticket" xmlns="http://www.w3.org/2000/svg">
<path fill-rule="evenodd" clip-rule="evenodd" d="M2.3415 5.12242C3.40446 4.19233 5.02116 4 7 4H17C18.9788 4 20.5955 4.19233 21.6585 5.12242C22.7703 6.09522 23 7.61172 23 9.375V10.25C23 10.8023 22.5523 11.25 22 11.25C21.0427 11.25 20.5 11.9035 20.5 12.4375C20.5 12.9715 21.0427 13.625 22 13.625C22.5523 13.625 23 14.0727 23 14.625C23 16.3883 22.7703 17.9048 21.6585 18.8776C20.5955 19.8077 18.9788 20 17 20H7C5.02116 20 3.40446 19.8077 2.3415 18.8776C1.22973 17.9048 1 16.3883 1 14.625V14.1875C1 13.6352 1.44772 13.1875 2 13.1875C2.95732 13.1875 3.5 12.534 3.5 12C3.5 11.466 2.95732 10.8125 2 10.8125C1.44772 10.8125 1 10.3648 1 9.8125V9.375C1 7.61172 1.22973 6.09522 2.3415 5.12242ZM3.00593 8.94917C4.38678 9.3301 5.5 10.4766 5.5 12C5.5 13.5234 4.38678 14.6699 3.00593 15.0508C3.04747 16.4749 3.30374 17.062 3.6585 17.3724C4.09554 17.7548 4.97884 18 7 18H17C19.0212 18 19.9045 17.7548 20.3415 17.3724C20.6581 17.0954 20.8962 16.5982 20.9733 15.4825C19.6021 15.0959 18.5 13.9532 18.5 12.4375C18.5 10.9119 19.6164 9.76432 21 9.38504V9.375C21 7.63828 20.7297 6.96728 20.3415 6.62758C19.9045 6.24517 19.0212 6 17 6H7C4.97884 6 4.09554 6.24517 3.6585 6.62758C3.30374 6.938 3.04747 7.52506 3.00593 8.94917ZM15.7526 8.49775C16.1163 8.91338 16.0741 9.54514 15.6585 9.90883L9.6585 15.1588C9.24287 15.5225 8.61111 15.4804 8.24742 15.0648C7.88374 14.6491 7.92586 14.0174 8.3415 13.6537L14.3415 8.40367C14.7571 8.03999 15.3889 8.08211 15.7526 8.49775ZM7.99451 9.59375C7.99451 9.04147 8.44222 8.59375 8.99451 8.59375H9.00349C9.55577 8.59375 10.0035 9.04147 10.0035 9.59375C10.0035 10.146 9.55577 10.5938 9.00349 10.5938H8.99451C8.44222 10.5938 7.99451 10.146 7.99451 9.59375ZM13.9945 14.4062C13.9945 13.854 14.4422 13.4062 14.9945 13.4062H15.0035C15.5558 13.4062 16.0035 13.854 16.0035 14.4062C16.0035 14.9585 15.5558 15.4062 15.0035 15.4062H14.9945C14.4422 15.4062 13.9945 14.9585 13.9945 14.4062Z" fill="currentColor"/>
</symbol><symbol viewBox="0 0 12 12" fill="none" id="icon-timer" xmlns="http://www.w3.org/2000/svg">
<path d="M7.5 0.75H4.5V1.75H7.5V0.75ZM5.5 7.25H6.5V4.25H5.5V7.25ZM9.515 3.945L10.225 3.235C10.01 2.98 9.775 2.74 9.52 2.53L8.81 3.24C8.035 2.62 7.06 2.25 6 2.25C3.515 2.25 1.5 4.265 1.5 6.75C1.5 9.235 3.51 11.25 6 11.25C8.49 11.25 10.5 9.235 10.5 6.75C10.5 5.69 10.13 4.715 9.515 3.945ZM6 10.25C4.065 10.25 2.5 8.685 2.5 6.75C2.5 4.815 4.065 3.25 6 3.25C7.935 3.25 9.5 4.815 9.5 6.75C9.5 8.685 7.935 10.25 6 10.25Z" fill="currentColor"/>
</symbol></svg>