<svg aria-hidden="true" xmlns="http://www.w3.org/2000/svg" xmlns:xlink="http://www.w3.org/1999/xlink"><symbol viewBox="0 0 24 24" fill="none" id="icon-bell" xmlns="http://www.w3.org/2000/svg">
<path d="M14 19.75C14 20.85 13.1 21.75 12 21.75C10.9 21.75 10 20.85 10 19.75H14Z" fill="currentColor"/>
<path d="M18 10.75V15.75L20 17.75V18.75H4V17.75L6 15.75V10.75C6 7.67 7.64 5.11 10.5 4.43V3.75C10.5 2.92 11.17 2.25 12 2.25C12.83 2.25 13.5 2.92 13.5 3.75V4.43C16.37 5.11 18 7.68 18 10.75Z" fill="currentColor"/>
</symbol><symbol viewBox="0 0 24 24" fill="none" id="icon-profile" xmlns="http://www.w3.org/2000/svg">
<path fill-rule="evenodd" clip-rule="evenodd" d="M12 2C6.48 2 2 6.48 2 12C2 17.52 6.48 22 12 22C17.52 22 22 17.52 22 12C22 6.48 17.52 2 12 2ZM18.36 16.83C16.93 15.09 13.46 14.5 12 14.5C10.54 14.5 7.07 15.09 5.64 16.83C4.62 15.49 4 13.82 4 12C4 7.59 7.59 4 12 4C16.41 4 20 7.59 20 12C20 13.82 19.38 15.49 18.36 16.83ZM8.5 9.5C8.5 7.56 10.06 6 12 6C13.94 6 15.5 7.56 15.5 9.5C15.5 11.44 13.94 13 12 13C10.06 13 8.5 11.44 8.5 9.5Z" fill="currentColor"/>
</symbol></svg>