<svg width="16" height="16" viewBox="0 0 16 16" fill="none" xmlns="http://www.w3.org/2000/svg">
<path fill-rule="evenodd" clip-rule="evenodd" d="M2.66675 4.66668C2.29856 4.66668 2.00008 4.96515 2.00008 5.33334V10.6667C2.00008 11.0349 2.29856 11.3333 2.66675 11.3333H13.3334C13.7016 11.3333 14.0001 11.0349 14.0001 10.6667V5.33334C14.0001 4.96515 13.7016 4.66668 13.3334 4.66668H2.66675ZM0.666748 5.33334C0.666748 4.22877 1.56218 3.33334 2.66675 3.33334H13.3334C14.438 3.33334 15.3334 4.22877 15.3334 5.33334V10.6667C15.3334 11.7712 14.438 12.6667 13.3334 12.6667H2.66675C1.56218 12.6667 0.666748 11.7712 0.666748 10.6667V5.33334ZM8.00008 7.33334C7.63189 7.33334 7.33341 7.63182 7.33341 8.00001C7.33341 8.3682 7.63189 8.66668 8.00008 8.66668C8.36827 8.66668 8.66675 8.3682 8.66675 8.00001C8.66675 7.63182 8.36827 7.33334 8.00008 7.33334ZM6.00008 8.00001C6.00008 6.89544 6.89551 6.00001 8.00008 6.00001C9.10465 6.00001 10.0001 6.89544 10.0001 8.00001C10.0001 9.10458 9.10465 10 8.00008 10C6.89551 10 6.00008 9.10458 6.00008 8.00001ZM3.33341 8.00001C3.33341 7.63182 3.63189 7.33334 4.00008 7.33334H4.00675C4.37494 7.33334 4.67341 7.63182 4.67341 8.00001C4.67341 8.3682 4.37494 8.66668 4.00675 8.66668H4.00008C3.63189 8.66668 3.33341 8.3682 3.33341 8.00001ZM11.3334 8.00001C11.3334 7.63182 11.6319 7.33334 12.0001 7.33334H12.0067C12.3749 7.33334 12.6734 7.63182 12.6734 8.00001C12.6734 8.3682 12.3749 8.66668 12.0067 8.66668H12.0001C11.6319 8.66668 11.3334 8.3682 11.3334 8.00001Z" fill="#46E044"/>
</svg>
