<svg width="120" height="60" viewBox="0 0 120 60" fill="none" xmlns="http://www.w3.org/2000/svg">
<g clip-path="url(#clip0_4035_40755)">
<path fill-rule="evenodd" clip-rule="evenodd" d="M60 36C74.34 36 86.722 27.6154 92.511 15.4812C96.315 7.50568 103.163 0 112 0H216C229.255 0 240 10.7452 240 24V84C240 92.8366 232.837 100 224 100H-104C-112.837 100 -120 92.8366 -120 84V24C-120 10.7452 -109.255 0 -96 0H8C16.837 0 23.685 7.50568 27.489 15.4812C33.278 27.6154 45.66 36 60 36Z" fill="#0F111C"/>
<mask id="mask0_4035_40755" style="mask-type:luminance" maskUnits="userSpaceOnUse" x="-120" y="0" width="360" height="100">
<path fill-rule="evenodd" clip-rule="evenodd" d="M60 36C74.34 36 86.722 27.6154 92.511 15.4812C96.315 7.50568 103.163 0 112 0H216C229.255 0 240 10.7452 240 24V84C240 92.8366 232.837 100 224 100H-104C-112.837 100 -120 92.8366 -120 84V24C-120 10.7452 -109.255 0 -96 0H8C16.837 0 23.685 7.50568 27.489 15.4812C33.278 27.6154 45.66 36 60 36Z" fill="white"/>
</mask>
<g mask="url(#mask0_4035_40755)">
<path d="M91.608 15.0507C85.979 26.8501 73.94 35 60 35V37C74.74 37 87.465 28.3807 93.413 15.9118L91.608 15.0507ZM112 1H216V-1H112V1ZM216 1C228.703 1 239 11.2975 239 24H241C241 10.1929 229.807 -1 216 -1V1ZM239 24V84H241V24H239ZM224 99H-104V101H224V99ZM-119 84V24H-121V84H-119ZM-119 24C-119 11.2975 -108.703 1 -96 1V-1C-109.807 -1 -121 10.1929 -121 24H-119ZM-96 1H8V-1H-96V1ZM60 35C46.06 35 34.021 26.8501 28.392 15.0507L26.587 15.9118C32.535 28.3807 45.26 37 60 37V35ZM8 1C16.238 1 22.831 8.03791 26.587 15.9118L28.392 15.0507C24.539 6.97345 17.435 -1 8 -1V1ZM239 84C239 92.2843 232.284 99 224 99V101C233.389 101 241 93.3888 241 84H239ZM-104 99C-112.284 99 -119 92.2843 -119 84H-121C-121 93.3888 -113.389 101 -104 101V99ZM93.413 15.9118C97.169 8.03791 103.762 1 112 1V-1C102.565 -1 95.461 6.97345 91.608 15.0507L93.413 15.9118Z" fill="#2A2D3D"/>
</g>
</g>
<defs>
<clipPath id="clip0_4035_40755">
<rect width="120" height="60" fill="white"/>
</clipPath>
</defs>
</svg>
