<svg width="120" height="120" viewBox="0 0 120 120" fill="none" xmlns="http://www.w3.org/2000/svg">
<path fill-rule="evenodd" clip-rule="evenodd" d="M60 10C32.4 10 10 32.4 10 60C10 87.6 32.4 110 60 110C87.6 110 110 87.6 110 60C110 32.4 87.6 10 60 10ZM91.8 84.15C84.65 75.45 67.3 72.5 60 72.5C52.7 72.5 35.35 75.45 28.2 84.15C23.1 77.45 20 69.1 20 60C20 37.95 37.95 20 60 20C82.05 20 100 37.95 100 60C100 69.1 96.9 77.45 91.8 84.15ZM42.5 47.5C42.5 37.8 50.3 30 60 30C69.7 30 77.5 37.8 77.5 47.5C77.5 57.2 69.7 65 60 65C50.3 65 42.5 57.2 42.5 47.5Z" fill="#4D5974"/>
</svg>
